<?xml version="1.0" encoding="utf-8"?>
<svg xmlns="http://www.w3.org/2000/svg" width="363" height="58" viewBox="0 0 363 58" fill="none">
<path d="M17.2977 1.74C18.4577 0.58 19.9877 0 21.5077 0C23.0277 0 24.5577 0.58 25.7177 1.74L32.6877 8.71C33.0277 9.05 33.0277 9.6 32.6877 9.93L29.0877 13.53C28.7477 13.87 28.1977 13.87 27.8677 13.53L17.2977 2.96C16.9577 2.62 16.9577 2.07 17.2977 1.73M1.7977 17.2C-0.572301 19.48 -0.602301 23.25 1.7277 25.57L33.3977 57.04C33.9377 57.58 34.8577 57.19 34.8477 56.43L34.7777 49.35C34.7777 49.13 34.6877 48.91 34.5277 48.76L2.9977 17.21C2.8277 17.04 2.6177 16.96 2.3977 16.96C2.1777 16.96 1.9677 17.04 1.8077 17.2M49.5777 1.77L33.0577 18.29C32.7277 18.62 32.7277 19.16 33.0577 19.49L36.6777 23.11C37.0077 23.44 37.5477 23.44 37.8777 23.11L58.0177 2.97C58.3477 2.64 58.3477 2.1 58.0177 1.77C56.8577 0.61 55.3277 0.02 53.7977 0.02C52.2677 0.02 50.7477 0.6 49.5777 1.77ZM62.4977 7.69L43.1077 27.09C42.6977 27.49 42.6977 28.15 43.1077 28.56L46.4577 31.91C46.8577 32.31 47.5177 32.31 47.9277 31.91L67.3177 12.52C67.7177 12.11 67.7177 11.46 67.3177 11.05L63.9677 7.7C63.7677 7.5 63.4977 7.4 63.2377 7.4C62.9777 7.4 62.7077 7.5 62.5077 7.7M11.2377 7.9L7.8877 11.25C7.4877 11.65 7.4877 12.31 7.8877 12.72L36.8777 41.7C37.2877 42.11 37.9377 42.11 38.3477 41.7L41.6977 38.35C42.1077 37.95 42.1077 37.29 41.6977 36.88L12.6977 7.89C12.4977 7.69 12.2277 7.59 11.9677 7.59C11.7077 7.59 11.4377 7.69 11.2377 7.89M72.2977 17.21L40.8977 48.61C40.7377 48.77 40.6477 48.99 40.6477 49.21V56.44C40.6477 57.2 41.5577 57.58 42.0977 57.04L73.4977 25.64C75.8277 23.31 75.8277 19.53 73.4977 17.2C73.3277 17.03 73.1177 16.95 72.8977 16.95C72.6777 16.95 72.4577 17.03 72.2977 17.2" fill="url(#paint0_linear_990_69295)"/>
<path d="M108.575 11.64C110.395 10.66 112.475 10.18 114.815 10.18C117.535 10.18 119.995 10.85 122.205 12.19C124.405 13.53 126.155 15.44 127.435 17.91C128.715 20.38 129.365 23.25 129.365 26.51C129.365 29.77 128.725 32.65 127.435 35.16C126.145 37.67 124.405 39.61 122.205 40.99C120.005 42.37 117.535 43.06 114.815 43.06C112.475 43.06 110.415 42.58 108.635 41.62C108.155 41.36 107.705 41.09 107.275 40.79C106.005 39.93 104.295 40.8 104.295 42.34V55.82C104.295 56.87 103.445 57.72 102.395 57.72H98.1451C97.0951 57.72 96.2451 56.87 96.2451 55.82V12.59C96.2451 11.54 97.0951 10.69 98.1451 10.69H102.395C103.445 10.69 104.295 11.54 104.295 12.59V15.29C105.325 13.83 106.755 12.62 108.575 11.64ZM119.955 21.53C119.165 20.13 118.135 19.07 116.855 18.34C115.565 17.61 114.185 17.25 112.685 17.25C111.185 17.25 109.855 17.62 108.575 18.37C107.285 19.12 106.255 20.2 105.465 21.62C104.685 23.04 104.285 24.71 104.285 26.62C104.285 28.53 104.675 30.2 105.465 31.62C106.255 33.04 107.285 34.12 108.575 34.87C109.855 35.62 111.225 35.99 112.685 35.99C114.145 35.99 115.565 35.61 116.855 34.84C118.135 34.07 119.175 32.98 119.955 31.56C120.735 30.14 121.135 28.45 121.135 26.5C121.135 24.55 120.745 22.93 119.955 21.53Z" fill="#3D3D3B"/>
<path d="M147.315 11.67C148.395 11.05 149.575 10.63 150.865 10.41C152.005 10.22 153.035 11.14 153.035 12.3V18.68H150.905C148.375 18.68 146.465 19.27 145.185 20.46C143.905 21.65 143.265 23.72 143.265 26.67V40.64C143.265 41.69 142.415 42.54 141.365 42.54H137.105C136.055 42.54 135.205 41.69 135.205 40.64V12.59C135.205 11.54 136.055 10.69 137.105 10.69H141.365C142.415 10.69 143.265 11.54 143.265 12.59V15.64C144.295 13.95 145.655 12.63 147.315 11.67Z" fill="#3D3D3B"/>
<path d="M164.305 41.02C161.855 39.66 159.925 37.73 158.525 35.24C157.125 32.75 156.425 29.88 156.425 26.62C156.425 23.36 157.145 20.49 158.585 18C160.025 15.51 161.985 13.58 164.475 12.22C166.965 10.86 169.745 10.18 172.805 10.18C175.865 10.18 178.645 10.86 181.145 12.22C183.635 13.58 185.605 15.51 187.035 18C188.475 20.49 189.195 23.37 189.195 26.62C189.195 29.87 188.455 32.75 186.985 35.24C185.505 37.73 183.515 39.66 181.005 41.02C178.495 42.38 175.685 43.06 172.585 43.06C169.485 43.06 166.765 42.38 164.305 41.02ZM176.695 34.98C177.975 34.27 179.005 33.21 179.765 31.79C180.525 30.37 180.915 28.65 180.915 26.62C180.915 23.59 180.115 21.27 178.525 19.64C176.935 18.01 174.995 17.2 172.685 17.2C170.375 17.2 168.465 18.02 166.905 19.64C165.355 21.27 164.575 23.6 164.575 26.62C164.575 29.64 165.335 31.98 166.845 33.6C168.355 35.23 170.265 36.04 172.565 36.04C174.025 36.04 175.395 35.69 176.675 34.98" fill="#3D3D3B"/>
<path d="M244.125 13.83C246.515 16.23 247.715 19.57 247.715 23.86V40.65C247.715 41.7 246.865 42.55 245.815 42.55H241.555C240.505 42.55 239.655 41.7 239.655 40.65V24.96C239.655 22.47 239.025 20.56 237.755 19.24C236.485 17.92 234.765 17.26 232.585 17.26C230.405 17.26 228.665 17.92 227.385 19.24C226.105 20.56 225.465 22.47 225.465 24.96V40.65C225.465 41.7 224.615 42.55 223.565 42.55H219.305C218.255 42.55 217.405 41.7 217.405 40.65V24.96C217.405 22.47 216.775 20.56 215.505 19.24C214.245 17.92 212.515 17.26 210.335 17.26C208.155 17.26 206.355 17.92 205.075 19.24C203.795 20.56 203.155 22.47 203.155 24.96V40.65C203.155 41.7 202.305 42.55 201.255 42.55H196.995C195.945 42.55 195.095 41.7 195.095 40.65V12.59C195.095 11.54 195.945 10.69 196.995 10.69H201.255C202.305 10.69 203.155 11.54 203.155 12.59V14.55C204.185 13.21 205.525 12.16 207.145 11.39C208.775 10.62 210.565 10.24 212.515 10.24C215.005 10.24 217.225 10.77 219.185 11.82C220.425 12.49 221.495 13.34 222.375 14.37C223.115 15.24 224.425 15.14 225.195 14.3C226.045 13.37 227.055 12.57 228.245 11.91C230.215 10.8 232.355 10.24 234.655 10.24C238.565 10.24 241.715 11.44 244.115 13.83" fill="#3D3D3B"/>
<path d="M267.695 11.64C269.515 10.66 271.595 10.18 273.935 10.18C276.655 10.18 279.115 10.85 281.325 12.19C283.525 13.53 285.275 15.44 286.555 17.91C287.835 20.38 288.475 23.25 288.475 26.51C288.475 29.77 287.835 32.65 286.555 35.16C285.275 37.67 283.525 39.61 281.325 40.99C279.125 42.37 276.655 43.06 273.935 43.06C271.595 43.06 269.535 42.58 267.755 41.62C267.275 41.36 266.825 41.09 266.395 40.79C265.125 39.93 263.415 40.8 263.415 42.34V55.82C263.415 56.87 262.565 57.72 261.515 57.72H257.265C256.215 57.72 255.365 56.87 255.365 55.82V12.59C255.365 11.54 256.215 10.69 257.265 10.69H261.515C262.565 10.69 263.415 11.54 263.415 12.59V15.29C264.445 13.83 265.875 12.62 267.695 11.64ZM279.075 21.53C278.295 20.13 277.255 19.07 275.975 18.34C274.695 17.61 273.305 17.25 271.805 17.25C270.305 17.25 268.975 17.62 267.695 18.37C266.405 19.12 265.375 20.2 264.585 21.62C263.805 23.04 263.405 24.71 263.405 26.62C263.405 28.53 263.795 30.2 264.585 31.62C265.375 33.04 266.405 34.12 267.695 34.87C268.975 35.62 270.345 35.99 271.805 35.99C273.265 35.99 274.685 35.61 275.975 34.84C277.255 34.07 278.295 32.98 279.075 31.56C279.865 30.14 280.255 28.45 280.255 26.5C280.255 24.55 279.865 22.93 279.075 21.53Z" fill="#3D3D3B"/>
<path d="M305.605 17.3C304.555 17.3 303.705 18.15 303.705 19.2V32.71C303.705 33.78 303.965 34.56 304.485 35.04C305.005 35.52 305.875 35.76 307.095 35.76H308.935C309.985 35.76 310.835 36.61 310.835 37.66V40.65C310.835 41.7 309.985 42.55 308.935 42.55H305.775C298.995 42.55 295.605 39.26 295.605 32.66V19.21C295.605 18.16 294.755 17.31 293.705 17.31C292.655 17.31 291.805 16.46 291.805 15.41V12.59C291.805 11.54 292.655 10.69 293.705 10.69C294.755 10.69 295.605 9.84 295.605 8.79V4.71C295.605 3.66 296.455 2.81 297.505 2.81H301.815C302.865 2.81 303.715 3.66 303.715 4.71V8.79C303.715 9.84 304.565 10.69 305.615 10.69H308.945C309.995 10.69 310.845 11.54 310.845 12.59V15.41C310.845 16.46 309.995 17.31 308.945 17.31H305.615L305.605 17.3Z" fill="#3D3D3B"/>
<path d="M324.685 1.9V40.65C324.685 41.7 323.835 42.55 322.785 42.55H318.525C317.475 42.55 316.625 41.7 316.625 40.65V1.9C316.625 0.85 317.475 0 318.525 0H322.785C323.835 0 324.685 0.85 324.685 1.9Z" fill="#3D3D3B"/>
<path d="M361.975 13.32L343.855 56.44C343.555 57.14 342.875 57.6 342.105 57.6H337.695C336.325 57.6 335.415 56.2 335.955 54.95L341.375 42.47C341.575 42 341.585 41.47 341.385 40.99L330.005 13.31C329.495 12.06 330.405 10.69 331.755 10.69H336.625C337.415 10.69 338.125 11.18 338.405 11.93L344.395 28.16C345.005 29.81 347.335 29.81 347.955 28.16L354.045 11.92C354.325 11.18 355.035 10.69 355.825 10.69H360.215C361.575 10.69 362.485 12.07 361.965 13.32" fill="#3D3D3B"/>
<defs>
<linearGradient id="paint0_linear_990_69295" x1="36.3877" y1="3.07" x2="41.4277" y2="78.14" gradientUnits="userSpaceOnUse">
<stop stop-color="#38804A"/>
<stop offset="0.66" stop-color="#2E5880"/>
</linearGradient>
</defs>
</svg>